<svg width="65" height="64" viewBox="0 0 65 64" fill="none" xmlns="http://www.w3.org/2000/svg">
<path d="M53.4894 34.6079C51.4387 34.6186 49.6627 35.1106 48.1747 35.8452C47.6307 34.7586 47.0787 33.8026 46.9867 33.0919C46.8787 32.2626 46.7534 31.7666 46.884 30.7786C47.0147 29.7906 47.5867 28.3906 47.5787 28.2852C47.5707 28.1799 47.4507 27.6772 46.268 27.6679C45.0854 27.6599 44.0734 27.8959 43.9547 28.2079C43.8361 28.5199 43.608 29.2226 43.4667 29.9559C43.26 31.0279 41.1054 34.8532 39.8827 36.8532C39.4827 36.0719 39.1427 35.3839 39.0721 34.8399C38.9641 34.0106 38.8387 33.5146 38.9694 32.5266C39.1001 31.5386 39.6721 30.1386 39.6641 30.0332C39.6561 29.9279 39.5361 29.4252 38.3534 29.4159C37.1707 29.4079 36.1587 29.6439 36.0401 29.9559C35.9214 30.2679 35.7934 30.9972 35.5521 31.7039C35.3094 32.4092 32.4467 38.7892 31.6961 40.4439C31.3134 41.2866 30.9814 41.9639 30.7467 42.4252L30.7454 42.4226C30.7454 42.4226 30.7307 42.4532 30.7067 42.5052C30.5054 42.8986 30.3867 43.1159 30.3867 43.1159C30.3867 43.1159 30.3881 43.1186 30.3907 43.1239C30.2307 43.4132 30.0601 43.6812 29.9761 43.6812C29.9174 43.6812 29.7987 42.9119 30.0014 41.8559C30.4281 39.6426 31.4507 36.1919 31.4414 36.0719C31.4361 36.0106 31.6321 35.4092 30.7734 35.0946C29.9387 34.7892 29.6414 35.2986 29.5654 35.2999C29.4921 35.3012 29.4374 35.4799 29.4374 35.4799C29.4374 35.4799 30.3667 31.5986 27.6641 31.5986C25.9734 31.5986 23.6321 33.4479 22.4787 35.1239C21.7507 35.5212 20.1921 36.3719 18.5401 37.2799C17.9054 37.6292 17.2574 37.9852 16.6427 38.3239C16.6014 38.2772 16.5587 38.2319 16.5161 38.1852C13.2374 34.6879 7.17872 32.2146 7.43472 27.5119C7.52805 25.8026 8.12272 21.3012 19.0787 15.8426C28.0534 11.3706 35.2387 12.6012 36.4801 15.3279C38.2534 19.2252 32.6401 26.4666 23.3201 27.5119C19.7694 27.9106 17.8987 26.5332 17.4334 26.0212C16.9441 25.4812 16.8707 25.4572 16.6881 25.5586C16.3907 25.7239 16.5787 26.1999 16.6881 26.4839C16.9667 27.2079 18.1081 28.4919 20.0547 29.1319C21.7681 29.6946 25.9374 30.0026 30.9787 28.0519C36.6267 25.8679 41.0361 19.7906 39.7401 14.7119C38.4227 9.54658 29.8574 7.84791 21.7507 10.7279C16.9201 12.4426 11.6974 15.1332 7.94139 18.6452C3.47605 22.8212 2.76405 26.4572 3.05739 27.9759C4.10005 33.3732 11.5387 36.8879 14.5174 39.4919C14.3707 39.5732 14.2321 39.6492 14.1067 39.7186C12.6134 40.4572 6.94272 43.4252 5.52405 46.5599C3.91472 50.1159 5.78005 52.6679 7.01472 53.0119C10.8401 54.0759 14.7654 52.1612 16.8761 49.0146C18.9854 45.8692 18.7281 41.7719 17.7601 39.9026C17.7481 39.8799 17.7347 39.8572 17.7227 39.8332C18.1081 39.6052 18.5014 39.3732 18.8907 39.1439C19.6507 38.6972 20.3974 38.2812 21.0441 37.9292C20.6814 38.9212 20.4161 40.1119 20.2787 41.8306C20.1161 43.8492 20.9441 46.4586 22.0267 47.4852C22.5041 47.9372 23.0774 47.9479 23.4401 47.9479C24.7001 47.9479 25.2747 46.8999 25.9081 45.6599C26.6841 44.1399 27.3734 42.3692 27.3734 42.3692C27.3734 42.3692 26.5094 47.1506 28.8641 47.1506C29.7227 47.1506 30.5854 46.0372 30.9707 45.4706C30.9721 45.4772 30.9721 45.4799 30.9721 45.4799C30.9721 45.4799 30.9947 45.4426 31.0387 45.3692C31.1281 45.2332 31.1787 45.1466 31.1787 45.1466C31.1787 45.1466 31.1801 45.1372 31.1827 45.1212C31.5281 44.5226 32.2934 43.1572 33.4401 40.9052C34.9227 37.9959 36.3441 34.3506 36.3441 34.3506C36.3441 34.3506 36.4761 35.2412 36.9094 36.7159C37.1641 37.5826 37.7054 38.5412 38.1334 39.4612C37.7894 39.9386 37.5787 40.2119 37.5787 40.2119C37.5787 40.2119 37.5801 40.2172 37.5841 40.2266C37.3094 40.5919 37.0014 40.9852 36.6787 41.3692C35.5081 42.7626 34.1147 44.3546 33.9281 44.8132C33.7081 45.3546 33.7601 45.7519 34.1854 46.0732C34.4961 46.3066 35.0481 46.3439 35.6254 46.3052C36.6774 46.2346 37.4161 45.9732 37.7814 45.8146C38.3507 45.6132 39.0134 45.2972 39.6347 44.8399C40.7827 43.9959 41.4747 42.7892 41.4081 41.1892C41.3707 40.3079 41.0907 39.4346 40.7347 38.6106C40.8387 38.4612 40.9427 38.3092 41.0481 38.1572C42.8574 35.5119 44.2614 32.6052 44.2614 32.6052C44.2614 32.6052 44.3934 33.4959 44.8267 34.9706C45.0454 35.7159 45.4787 36.5306 45.868 37.3279C44.1667 38.7106 43.1121 40.3172 42.7454 41.3706C42.0681 43.3199 42.5987 44.2026 43.5934 44.4039C44.0441 44.4946 44.6814 44.2879 45.16 44.0852C45.756 43.8879 46.472 43.5586 47.1414 43.0666C48.2894 42.2226 49.3934 41.0412 49.3267 39.4426C49.296 38.7146 49.0987 37.9919 48.8307 37.2986C50.2734 36.6972 52.14 36.3639 54.5187 36.6412C59.6214 37.2372 60.6214 40.4226 60.4307 41.7559C60.2387 43.0892 59.1694 43.8226 58.8107 44.0439C58.4534 44.2652 58.344 44.3426 58.3734 44.5066C58.4174 44.7452 58.5827 44.7372 58.888 44.6852C59.308 44.6146 61.5667 43.6012 61.664 41.1399C61.7854 38.0119 58.792 34.5799 53.4894 34.6079ZM14.1601 47.8666C12.4694 49.7106 10.1094 50.4066 9.09605 49.8199C8.00272 49.1866 8.43605 46.4719 10.5094 44.5146C11.7734 43.3226 13.4054 42.2239 14.4881 41.5479C14.7347 41.3999 15.0961 41.1826 15.5361 40.9186C15.6094 40.8772 15.6507 40.8546 15.6507 40.8546L15.6494 40.8519C15.7347 40.8012 15.8214 40.7492 15.9107 40.6946C16.6667 43.4799 15.9347 45.9319 14.1601 47.8666ZM26.4734 39.4972C25.8854 40.9319 24.6534 44.6039 23.9027 44.4066C23.2587 44.2372 22.8667 41.4466 23.7747 38.6999C24.2307 37.3172 25.2067 35.6652 25.7801 35.0239C26.7027 33.9919 27.7187 33.6546 27.9654 34.0732C28.2787 34.6066 26.8427 38.5972 26.4734 39.4972ZM36.6454 44.3506C36.3961 44.4812 36.1667 44.5626 36.0614 44.4999C35.9827 44.4532 36.1641 44.2812 36.1641 44.2812C36.1641 44.2812 37.4361 42.9119 37.9374 42.2892C38.2294 41.9266 38.5667 41.4959 38.9347 41.0159C38.9374 41.0639 38.9387 41.1119 38.9387 41.1586C38.9361 42.7986 37.3521 43.9052 36.6454 44.3506ZM44.4814 42.5639C44.2947 42.4319 44.3267 42.0039 44.9387 40.6692C45.1787 40.1452 45.728 39.2639 46.68 38.4212C46.7907 38.7679 46.8574 39.0999 46.856 39.4092C46.844 41.4732 45.3721 42.2439 44.4814 42.5639Z" fill="#F06292"/>
</svg>
