<svg width="43" height="64" viewBox="0 0 43 64" fill="none" xmlns="http://www.w3.org/2000/svg">
<g clip-path="url(#clip0_4_545)">
<path d="M21.6667 31.9999C21.6667 29.1709 22.7905 26.4578 24.7909 24.4574C26.7913 22.4571 29.5044 21.3333 32.3334 21.3333C35.1623 21.3333 37.8754 22.4571 39.8758 24.4574C41.8762 26.4578 43 29.1709 43 31.9999C43 34.8289 41.8762 37.542 39.8758 39.5424C37.8754 41.5428 35.1623 42.6666 32.3334 42.6666C29.5044 42.6666 26.7913 41.5428 24.7909 39.5424C22.7905 37.542 21.6667 34.8289 21.6667 31.9999Z" fill="#1ABCFE"/>
<path d="M0.333374 53.3334C0.333374 50.5044 1.45718 47.7913 3.45757 45.7909C5.45796 43.7906 8.17106 42.6667 11 42.6667H21.6667V53.3334C21.6667 56.1624 20.5429 58.8755 18.5425 60.8759C16.5421 62.8763 13.829 64.0001 11 64.0001C8.17106 64.0001 5.45796 62.8763 3.45757 60.8759C1.45718 58.8755 0.333374 56.1624 0.333374 53.3334Z" fill="#0ACF83"/>
<path d="M21.6667 0V21.3333H32.3334C35.1623 21.3333 37.8754 20.2095 39.8758 18.2091C41.8762 16.2088 43 13.4956 43 10.6667C43 7.83769 41.8762 5.12458 39.8758 3.12419C37.8754 1.12381 35.1623 0 32.3334 0L21.6667 0Z" fill="#FF7262"/>
<path d="M0.333374 10.6667C0.333374 13.4956 1.45718 16.2088 3.45757 18.2091C5.45796 20.2095 8.17106 21.3333 11 21.3333H21.6667V0H11C8.17106 0 5.45796 1.12381 3.45757 3.12419C1.45718 5.12458 0.333374 7.83769 0.333374 10.6667Z" fill="#F24E1E"/>
<path d="M0.333374 31.9999C0.333374 34.8289 1.45718 37.542 3.45757 39.5424C5.45796 41.5428 8.17106 42.6666 11 42.6666H21.6667V21.3333H11C8.17106 21.3333 5.45796 22.4571 3.45757 24.4574C1.45718 26.4578 0.333374 29.1709 0.333374 31.9999Z" fill="#A259FF"/>
</g>
<defs>
<clipPath id="clip0_4_545">
<rect width="42.6667" height="64" fill="white" transform="translate(0.333374)"/>
</clipPath>
</defs>
</svg>
