<svg width="57" height="64" viewBox="0 0 57 64" fill="none" xmlns="http://www.w3.org/2000/svg">
<g clip-path="url(#clip0_4_508)">
<path d="M28.5995 64C27.7415 64 26.9407 63.7668 26.1972 63.3586L18.5898 58.7517C17.4459 58.1102 18.0178 57.877 18.3611 57.7603C19.9054 57.2355 20.1914 57.1189 21.7929 56.1859C21.9645 56.0692 22.1933 56.1275 22.3649 56.2442L28.1991 59.8014C28.4279 59.918 28.7139 59.918 28.8855 59.8014L51.7074 46.3307C51.9362 46.214 52.0506 45.9808 52.0506 45.6892V18.806C52.0506 18.5145 51.9362 18.2812 51.7074 18.1646L28.8855 4.75223C28.6567 4.63561 28.3706 4.63561 28.1991 4.75223L5.37713 18.1646C5.14835 18.2812 5.03394 18.5728 5.03394 18.806V45.6892C5.03394 45.9224 5.14835 46.214 5.37713 46.3307L11.6117 50.0045C14.9864 51.7539 17.1027 49.7129 17.1027 47.6719V21.1386C17.1027 20.7888 17.3887 20.4389 17.7891 20.4389H20.7062C21.0494 20.4389 21.3925 20.7305 21.3925 21.1386V47.6719C21.3925 52.2788 18.933 54.9613 14.6432 54.9613C13.3276 54.9613 12.2981 54.9613 9.38096 53.5034L3.37521 50.0045C1.88807 49.1297 0.9729 47.4969 0.9729 45.7475V18.8644C0.9729 17.115 1.88807 15.4822 3.37521 14.6074L26.1972 1.13672C27.6271 0.320313 29.5718 0.320313 31.0018 1.13672L53.8237 14.6074C55.3109 15.4822 56.226 17.115 56.226 18.8644V45.7475C56.226 47.4969 55.3109 49.1297 53.8237 50.0045L31.0018 63.4752C30.3154 63.7668 29.4575 64 28.5995 64Z" fill="#5FA04E"/>
<path d="M35.6919 45.5143C25.6823 45.5143 23.6232 40.8491 23.6232 36.8837C23.6232 36.5339 23.9091 36.184 24.3095 36.184H27.2838C27.627 36.184 27.913 36.4172 27.913 36.7671C28.3705 39.8577 29.6861 41.374 35.7491 41.374C40.5537 41.374 42.6128 40.266 42.6128 37.6418C42.6128 36.1256 42.0408 35.0176 34.5479 34.2595C28.3134 33.6181 24.4239 32.2186 24.4239 27.1451C24.4239 22.4216 28.3134 19.6226 34.8339 19.6226C42.1552 19.6226 45.7587 22.1884 46.2163 27.7866C46.2163 27.9616 46.1591 28.1365 46.0447 28.3115C45.9303 28.4281 45.7587 28.5447 45.5871 28.5447H42.5557C42.2696 28.5447 41.9837 28.3115 41.9265 28.0198C41.2401 24.8126 39.4669 23.7629 34.7768 23.7629C29.5145 23.7629 28.8854 25.629 28.8854 27.0285C28.8854 28.7196 29.6289 29.2445 36.7215 30.1775C43.7568 31.1106 47.0743 32.4518 47.0743 37.4669C47.0743 42.5986 42.8988 45.5143 35.6919 45.5143Z" fill="#5FA04E"/>
</g>
<defs>
<clipPath id="clip0_4_508">
<rect width="56.32" height="64" fill="white" transform="translate(0.339966)"/>
</clipPath>
</defs>
</svg>
