<svg width="71" height="64" viewBox="0 0 71 64" fill="none" xmlns="http://www.w3.org/2000/svg">
<g clip-path="url(#clip0_4_490)">
<path d="M35.6364 38.7725C39.3087 38.7725 42.2858 35.7404 42.2858 32C42.2858 28.2597 39.3087 25.2275 35.6364 25.2275C31.9641 25.2275 28.9871 28.2597 28.9871 32C28.9871 35.7404 31.9641 38.7725 35.6364 38.7725Z" fill="#087EA4"/>
<path d="M35.6364 47.2382C53.9981 47.2382 68.8832 40.4158 68.8832 32.0001C68.8832 23.5843 53.9981 16.762 35.6364 16.762C17.2747 16.762 2.38965 23.5843 2.38965 32.0001C2.38965 40.4158 17.2747 47.2382 35.6364 47.2382Z" stroke="#087EA4" stroke-width="3"/>
<path d="M22.6798 39.619C31.8606 55.8152 45.104 65.5336 52.2598 61.3257C59.4155 57.1178 57.7739 40.5771 48.593 24.3809C39.4122 8.18475 26.1688 -1.53366 19.013 2.67422C11.8573 6.88211 13.4989 23.4228 22.6798 39.619Z" stroke="#087EA4" stroke-width="3"/>
<path d="M22.6798 24.3808C13.4989 40.577 11.8573 57.1177 19.013 61.3256C26.1688 65.5335 39.4122 55.8151 48.5931 39.6189C57.7739 23.4228 59.4155 6.88205 52.2598 2.67416C45.104 -1.53372 31.8606 8.18469 22.6798 24.3808Z" stroke="#087EA4" stroke-width="3"/>
</g>
<defs>
<clipPath id="clip0_4_490">
<rect width="69.8182" height="64" fill="white" transform="translate(0.727295)"/>
</clipPath>
</defs>
</svg>
